HIERARCHY
ROOT ui
{
	 OFFSET 0 0 0
	 CHANNELS 3 XPosition YPosition Z Position
	 EndSite
	 {
	 OFFSET 0 -1 0
	 }
}
ROOT li
{
	 OFFSET 0 0 0
	 CHANNELS 3 XPosition YPosition Z Position
	 EndSite
	 {
	 OFFSET 0 -1 0
	 }
}
ROOT ul
{
	 OFFSET 0 0 0
	 CHANNELS 3 XPosition YPosition Z Position
	 EndSite
	 {
	 OFFSET 0 -1 0
	 }
}
ROOT ll
{
	 OFFSET 0 0 0
	 CHANNELS 3 XPosition YPosition Z Position
	 EndSite
	 {
	 OFFSET 0 -1 0
	 }
}
ROOT tt
{
	 OFFSET 0 0 0
	 CHANNELS 3 XPosition YPosition Z Position
	 EndSite
	 {
	 OFFSET 0 -1 0
	 }
}
ROOT tb
{
	 OFFSET 0 0 0
	 CHANNELS 3 XPosition YPosition Z Position
	 EndSite
	 {
	 OFFSET 0 -1 0
	 }
}
ROOT td
{
	 OFFSET 0 0 0
	 CHANNELS 3 XPosition YPosition Z Position
	 EndSite
	 {
	 OFFSET 0 -1 0
	 }
}
ROOT v
{
	 OFFSET 0 0 0
	 CHANNELS 3 XPosition YPosition Z Position
	 EndSite
	 {
	 OFFSET 0 -1 0
	 }
}
ROOT bn
{
	 OFFSET 0 0 0
	 CHANNELS 3 XPosition YPosition Z Position
	 EndSite
	 {
	 OFFSET 0 -1 0
	 }
}
MOTION
Frames: 27
Frame Time: 0.002
0.004958654880523682	0.0046584329605102535	0		0.7392431640625	-2.845431884765625	0		-0.9898178100585937	0.12340099334716798	0		-0.48221487426757814	-3.159268310546875	0		1.505154541015625	-0.7265742797851562	0		3.263814208984375	-1.0455723876953125	0		4.58504345703125	-0.9388248901367188	0		5.991466796875	0.39007437133789064	0		-0.024585933685302735	5.9773251953125	0		
-0.002338992118835449	-0.0018379809856414796	0		0.7290486450195313	-2.836912109375	0		-0.9940698852539063	0.1208926010131836	0		-0.514436279296875	-3.15248486328125	0		1.5176890869140625	-0.7473173217773438	0		3.273710205078125	-1.032321533203125	0		4.57686669921875	-0.932406494140625	0		6.000251953125	0.390280029296875	0		-0.005739244937896728	5.9725478515625	0		
-0.0025684809684753417	-0.0013930360078811645	0		0.728756103515625	-2.8364833984375	0		-0.9942966918945313	0.12135958862304687	0		-0.48359677124023437	-3.139365234375	0		1.5281715087890626	-0.77202392578125	0		3.27651171875	-1.026982177734375	0		4.5906591796875	-0.9282152709960938	0		5.99494482421875	0.38264620971679686	0		-0.04088806915283203	5.96837255859375	0		
-0.0028021419048309326	-9.336490035057068E-4	0		0.7154451293945312	-2.836900146484375	0		-0.9945274047851562	0.12184248352050782	0		-0.4978388671875	-3.132742919921875	0		1.54965771484375	-0.7958382568359375	0		3.26940625	-1.012525390625	0		4.57453466796875	-0.9156917114257812	0		5.99472021484375	0.3829634094238281	0		-0.04000197982788086	5.966822265625	0		
0.008984232902526855	0.0014067939519882202	0		0.7393009643554688	-2.821709228515625	0		-0.9907266235351563	0.12529488372802736	0		-0.495902099609375	-3.1092822265625	0		1.56634765625	-0.8005908813476562	0		3.300078857421875	-1.0184735717773437	0		4.59219970703125	-0.9225311889648438	0		5.99958203125	0.39122882080078125	0		-0.04093410491943359	5.98130419921875	0		
0.003806420087814331	0.006941027164459228	0		0.7389937133789063	-2.82124853515625	0		-0.9949884643554687	0.12284510040283203	0		-0.46608782958984374	-3.097116943359375	0		1.56581005859375	-0.8261505126953125	0		3.27219189453125	-0.983777099609375	0		4.58624853515625	-0.8941085205078125	0		5.999359375	0.3915504760742187	0		0.01100998592376709	5.98321826171875	0		
4.469099938869476E-4	-0.00453928279876709	0		0.7636314086914062	-2.8260556640625	0		-1.0062130737304686	0.12347900390625	0		-0.4973121337890625	-3.088279296875	0		1.5703397216796875	-0.8457607421875	0		3.264728759765625	-1.002302978515625	0		4.5859951171875	-0.8937482299804688	0		5.9991416015625	0.3918720092773437	0		-0.023117944717407225	5.978076171875	0		
2.234310060739517E-4	-0.004050432205200195	0		0.7284727172851563	-2.812205322265625	0		-1.0064329223632813	0.12399635314941407	0		-0.46750411987304685	-3.07710595703125	0		1.577784912109375	-0.8734024047851563	0		3.274619140625	-0.9890169677734375	0		4.58880126953125	-0.88842236328125	0		5.993841796875	0.384246337890625	0		-0.00422802209854126	5.97335791015625	0		
-0.003938710927963257	0.0014814549684524535	0		0.7302066040039062	-2.808760498046875	0		-1.00069091796875	0.12044808959960937	0		-0.5405205078125	-3.04980322265625	0		1.3993990478515625	-0.8850020751953125	0		3.283339599609375	-0.9917227172851563	0		4.58855810546875	-0.8880675048828125	0		5.9936357421875	0.38456036376953123	0		-0.05729045867919922	5.97242919921875	0		
0.0038395960330963137	8.782029747962951E-4	0		0.7090135498046874	-2.79906640625	0		-1.001809326171875	0.1289730987548828	0		-0.493724853515625	-3.040821044921875	0		1.4610816650390626	-0.892241943359375	0		3.264431884765625	-0.9611277465820313	0		4.59259716796875	-0.8627645874023437	0		5.99852490234375	0.39281161499023437	0		-0.02225939178466797	5.978529296875	0		
-4.0653899312019347E-4	-0.0025987539291381836	0		0.715892578125	-2.783687255859375	0		-1.0119959106445313	0.1305924072265625	0		-0.534805908203125	-3.02087548828125	0		1.3837357177734375	-0.9019552612304688	0		3.27304541015625	-0.9748458251953125	0		4.5724365234375	-0.8562032470703125	0		5.99833447265625	0.39310995483398437	0		0.011782425880432129	5.98463232421875	0		
-5.99822998046875E-4	-0.0021286630630493165	0		0.7156152954101562	-2.78323876953125	0		-0.9822756958007812	0.122760986328125	0		-0.4690057678222656	-3.013121337890625	0		1.4373345947265626	-0.9181245727539062	0		3.28901025390625	-0.9576530151367187	0		4.59520458984375	-0.8571261596679688	0		5.99306494140625	0.38545477294921876	0		0.011769987106323243	5.98510205078125	0		
-0.007860527992248536	-0.008591052055358886	0		0.7153477783203125	-2.78280126953125	0		-1.0224528198242187	0.12369469451904297	0		-0.5351427612304688	-2.999914794921875	0		1.3569617919921875	-0.931818603515625	0		3.2627216796875	-0.9640038452148437	0		4.5701640625	-0.8415289916992188	0		5.99289306640625	0.38573269653320313	0		0.01176792812347412	5.98556103515625	0		
-9.550399780273438E-4	-0.0012218430042266846	0		0.7191353149414063	-2.77842041015625	0		-1.00163330078125	0.12293932342529297	0		-0.4883199462890625	-2.9919755859375	0		1.350683837890625	-0.9383452758789063	0		3.279708984375	-0.9468464965820312	0		4.57893212890625	-0.8443211669921875	0		5.9927333984375	0.3859971923828125	0		-0.05636190414428711	5.97376708984375	0		
0.006964476108551026	0.0061235899925231934	0		0.7259911499023437	-2.769086181640625	0		-0.9927100219726562	0.1303046112060547	0		-0.52126708984375	-2.964157958984375	0		1.379159423828125	-0.968274169921875	0		3.297319091796875	-0.9647130737304688	0		4.56188330078125	-0.8318386840820312	0		5.99357568359375	0.3852354736328125	0		-0.03923526000976563	5.98301318359375	0		
-0.0012554219961166382	-3.6336401104927063E-4	0		0.714829345703125	-2.762563232421875	0		-0.9687822875976563	0.1364897918701172	0		-0.491370361328125	-2.952055419921875	0		1.4102200927734374	-0.947243408203125	0		3.282472412109375	-0.9352278442382812	0		4.58184814453125	-0.8197847290039062	0		5.99754638671875	0.39442364501953125	0		-0.021234127044677736	5.979236328125	0		
-0.0013794920444488525	4.746000096201897E-5	0		0.714616455078125	-2.76217529296875	0		-1.0080006713867187	0.1283706817626953	0		-0.5184527587890625	-2.939325927734375	0		1.5319229736328126	-0.9602485961914062	0		3.24617431640625	-0.9475171508789062	0		4.57070947265625	-0.8183976440429688	0		5.99234521484375	0.38669830322265625	0		0.012910594940185547	5.98626513671875	0		
-0.008561996459960938	-0.006475234985351562	0		0.7065470581054687	-2.750711181640625	0		-0.9631484375	0.12429434204101562	0		-0.4854967041015625	-2.9252841796875	0		1.4038521728515625	-0.9534578857421875	0		3.297058837890625	-0.9457999267578125	0		4.57666845703125	-0.8102166748046875	0		5.99225390625	0.38690121459960936	0		-0.003121618032455444	5.97584375	0		
-0.004598608016967773	-0.002135556936264038	0		0.6653890380859375	-2.748885986328125	0		-0.9971783447265625	0.12909507751464844	0		-0.534546875	-2.913330078125	0		1.406773193359375	-0.9501533203125	0		3.285003662109375	-0.9403882446289062	0		4.57168505859375	-0.7989266357421875	0		5.98418603515625	0.38717926025390625	0		0.013117080688476562	5.987046875	0		
0.02942320442199707	0.00485097599029541	0		0.71535205078125	-2.739103515625	0		-0.993195556640625	0.13245523071289061	0		-0.5324501953125	-2.8909638671875	0		1.414810302734375	-0.9389193725585937	0		3.28809814453125	-0.9241607055664063	0		4.5856591796875	-0.7938660888671875	0		5.9972333984375	0.39520370483398437	0		-0.055869747161865234	5.9762021484375	0		
-0.0016468030214309693	0.0015634870529174804	0		0.6257155151367187	-2.695746337890625	0		-1.0032056884765626	0.13396342468261718	0		-0.49739569091796876	-2.874984130859375	0		1.5426751708984374	-0.9460623779296875	0		3.280881103515625	-0.9378316040039063	0		4.5746171875	-0.7925366821289063	0		5.99212939453125	0.3874173889160156	0		-0.021626728057861328	5.982177734375	0		
-0.001644461989402771	0.0019129669666290282	0		0.6795635986328125	-2.701034423828125	0		-0.9741892700195313	0.1350167999267578	0		-0.5263659057617187	-2.863287353515625	0		1.4147213134765626	-0.9383067016601563	0		3.30407763671875	-0.91785986328125	0		4.56868359375	-0.7842782592773437	0		5.99214501953125	0.3875585632324219	0		0.013649617195129395	5.9881279296875	0		
-0.008693816184997559	-0.004668251037597656	0		0.62555908203125	-2.6951025390625	0		-1.0181971435546875	0.1318931884765625	0		-0.491267578125	-2.84833203125	0		1.5456868896484375	-0.9415175170898438	0		3.2720888671875	-0.9162723999023438	0		4.5717548828125	-0.7781363525390625	0		5.99218896484375	0.38768487548828123	0		-0.0022332839965820313	5.9776494140625	0		
-0.004590779781341553	-3.8729000091552735E-4	0		0.6845274047851563	-2.6944755859375	0		-1.0031013793945311	0.13508419799804688	0		-0.5510787963867188	-2.827300048828125	0		1.361929443359375	-0.9211351318359375	0		3.288100830078125	-0.9172467041015625	0		4.56669287109375	-0.7859158325195312	0		5.97525	0.38699166870117185	0		-0.01991388511657715	5.9821826171875	0		
0.01247033977508545	-0.0022669789791107176	0		0.6386901245117188	-2.678656005859375	0		-0.9979654541015625	0.13937876892089843	0		-0.4969160461425781	-2.811587158203125	0		1.4391026611328126	-0.910756591796875	0		3.310128173828125	-0.91930419921875	0		4.56696826171875	-0.76676806640625	0		5.98434912109375	0.3869856567382812	0		-0.002496155023574829	5.992302734375	0		
0.025640432357788085	0.002887458086013794	0		0.6926427001953125	-2.683997802734375	0		-0.96883740234375	0.14038607788085938	0		-0.5106288146972656	-2.78710302734375	0		1.43918212890625	-0.9105045166015625	0		3.30157763671875	-0.8870196533203125	0		4.5711103515625	-0.7616785278320313	0		5.9805693359375	0.39511483764648436	0		-0.019275077819824217	5.9828056640625	0		
-0.008299034118652343	-0.003423017978668213	0		0.6657061767578125	-2.681415283203125	0		-0.9447407836914062	0.1364404754638672	0		-0.5025019836425781	-2.77888134765625	0		1.555360595703125	-0.9046076049804688	0		3.25351318359375	-0.901290283203125	0		4.56716357421875	-0.7665075073242188	0		5.975630859375	0.3872447509765625	0		-0.05396680450439453	5.97850830078125	0		
